<svg width="15" height="16" viewBox="0 0 15 16" fill="none" xmlns="http://www.w3.org/2000/svg">
<path d="M14 8.74998H2V3.12498C1.99942 2.91315 2.04086 2.7033 2.12193 2.50759C2.203 2.31188 2.32208 2.1342 2.47228 1.98482L2.48478 1.97232C2.72018 1.73727 3.0224 1.58063 3.35016 1.52379C3.67792 1.46695 4.01524 1.51269 4.31603 1.65476C4.03196 2.12707 3.91389 2.68077 3.98057 3.22788C4.04726 3.77499 4.29488 4.28411 4.68409 4.67436L5.02631 5.01657L4.39641 5.64651L5.10347 6.35357L5.73338 5.72367L9.22366 2.23345L9.85356 1.60354L9.14647 0.896448L8.51653 1.52635L8.17431 1.18414C7.76458 0.775551 7.22448 0.523685 6.64812 0.472427C6.07176 0.421169 5.49568 0.573769 5.02028 0.903636C4.51897 0.587046 3.9249 0.450372 3.33564 0.516066C2.74638 0.58176 2.19699 0.845914 1.77772 1.26514L1.76522 1.27764C1.52186 1.51967 1.32892 1.80756 1.19757 2.12466C1.06622 2.44176 0.999066 2.78176 1 3.12498V8.74998H0V9.74998H1V10.7094C0.999978 10.79 1.01298 10.87 1.0385 10.9465L1.96875 13.7371C2.01839 13.8865 2.11385 14.0165 2.24156 14.1086C2.36928 14.2006 2.52275 14.2501 2.68019 14.25H3.08331L2.71875 15.5H3.76041L4.125 14.25H10.6281L11.0031 15.5H12.0469L11.6719 14.25H12.3197C12.4771 14.2501 12.6306 14.2007 12.7584 14.1086C12.8861 14.0165 12.9816 13.8866 13.0312 13.7371L13.9614 10.9465C13.987 10.87 14 10.79 14 10.7094V9.74998H15V8.74998H14ZM5.39125 1.89123C5.66675 1.61633 6.04004 1.46194 6.42923 1.46194C6.81842 1.46194 7.19172 1.61633 7.46722 1.89123L7.80937 2.23345L5.73347 4.30935L5.39125 3.9672C5.11637 3.69169 4.96199 3.3184 4.96199 2.92921C4.96199 2.54003 5.11637 2.16674 5.39125 1.89123ZM13 10.6687L12.1396 13.25H2.86037L2 10.6687V9.74998H13V10.6687Z" fill="#FFFBFB" fill-opacity="0.65"/>
</svg>
