<svg width="14" height="12" viewBox="0 0 14 12" fill="none" xmlns="http://www.w3.org/2000/svg">
<path d="M9.80001 0.400024C10.3078 0.399946 10.7966 0.593011 11.1672 0.940056C11.5379 1.2871 11.7627 1.76214 11.796 2.26882L11.8 2.40002V4.44002C12.2287 4.5277 12.6168 4.75347 12.9049 5.08276C13.193 5.41205 13.3652 5.82671 13.3952 6.26323L13.4 6.40002V11.2C13.4002 11.3 13.3629 11.3964 13.2956 11.4703C13.2283 11.5441 13.1357 11.5901 13.0361 11.5991C12.9366 11.6082 12.8373 11.5796 12.7577 11.519C12.6782 11.4585 12.6242 11.3704 12.6064 11.272L12.6 11.2V9.20002H1.40001V11.2C1.40019 11.3 1.36294 11.3964 1.2956 11.4703C1.22826 11.5441 1.1357 11.5901 1.03615 11.5991C0.936601 11.6082 0.837279 11.5796 0.757741 11.519C0.678203 11.4585 0.624214 11.3704 0.606406 11.272L0.600006 11.2V6.40002C0.599912 5.93896 0.759119 5.49203 1.05068 5.13486C1.34225 4.7777 1.74826 4.53224 2.20001 4.44002V2.40002C2.19993 1.89225 2.39299 1.40346 2.74004 1.03279C3.08708 0.662121 3.56213 0.437335 4.06881 0.404025L4.20001 0.400024H9.80001ZM11.4 5.20002H2.60001C2.30183 5.20002 2.01432 5.31103 1.79352 5.51142C1.57272 5.71182 1.43443 5.98724 1.40561 6.28402L1.40001 6.40002V8.40002H12.6V6.40002C12.6 6.10184 12.489 5.81434 12.2886 5.59354C12.0882 5.37274 11.8128 5.23445 11.516 5.20562L11.4 5.20002ZM9.80001 1.20002H4.20001C3.9017 1.20004 3.61409 1.31116 3.39327 1.51172C3.17245 1.71228 3.03424 1.9879 3.00561 2.28482L3.00001 2.40002V4.40002H3.80001V4.00002C3.80001 3.89394 3.84215 3.7922 3.91716 3.71718C3.99218 3.64217 4.09392 3.60002 4.20001 3.60002H6.20001C6.30609 3.60002 6.40783 3.64217 6.48285 3.71718C6.55786 3.7922 6.60001 3.89394 6.60001 4.00002V4.40002H7.40001V4.00002C7.40001 3.89394 7.44215 3.7922 7.51716 3.71718C7.59218 3.64217 7.69392 3.60002 7.80001 3.60002H9.80001C9.90609 3.60002 10.0078 3.64217 10.0828 3.71718C10.1579 3.7922 10.2 3.89394 10.2 4.00002V4.40002H11V2.40002C11 2.10184 10.889 1.81434 10.6886 1.59354C10.4882 1.37274 10.2128 1.23445 9.91601 1.20562L9.80001 1.20002Z" fill="#FFFBFB" fill-opacity="0.65"/>
</svg>
