<svg width="91" height="45" viewBox="0 0 91 45" fill="none" xmlns="http://www.w3.org/2000/svg">
<path d="M0.828 44C0.604 44 0.432 43.904 0.312 43.712C0.192 43.52 0.18 43.316 0.276 43.1L3.648 35.048C3.768 34.768 3.964 34.628 4.236 34.628C4.524 34.628 4.72 34.768 4.824 35.048L8.208 43.124C8.296 43.348 8.28 43.552 8.16 43.736C8.048 43.912 7.876 44 7.644 44C7.524 44 7.408 43.968 7.296 43.904C7.192 43.832 7.116 43.736 7.068 43.616L4.092 36.224H4.428L1.404 43.616C1.348 43.744 1.264 43.84 1.152 43.904C1.048 43.968 0.94 44 0.828 44ZM1.464 41.936L1.944 40.904H6.648L7.128 41.936H1.464ZM13.6031 44.12C12.9551 44.12 12.3471 44 11.7791 43.76C11.2191 43.512 10.7271 43.172 10.3031 42.74C9.88713 42.3 9.55913 41.788 9.31913 41.204C9.08713 40.62 8.97113 39.988 8.97113 39.308C8.97113 38.636 9.08713 38.012 9.31913 37.436C9.55913 36.852 9.88713 36.344 10.3031 35.912C10.7271 35.472 11.2191 35.128 11.7791 34.88C12.3391 34.632 12.9471 34.508 13.6031 34.508C14.2191 34.508 14.7471 34.588 15.1871 34.748C15.6351 34.908 16.0831 35.172 16.5311 35.54C16.5951 35.588 16.6431 35.64 16.6751 35.696C16.7151 35.744 16.7391 35.796 16.7471 35.852C16.7631 35.9 16.7711 35.96 16.7711 36.032C16.7711 36.184 16.7151 36.312 16.6031 36.416C16.4991 36.512 16.3711 36.568 16.2191 36.584C16.0671 36.592 15.9191 36.54 15.7751 36.428C15.4791 36.172 15.1711 35.976 14.8511 35.84C14.5391 35.704 14.1231 35.636 13.6031 35.636C13.1311 35.636 12.6871 35.732 12.2711 35.924C11.8551 36.116 11.4871 36.38 11.1671 36.716C10.8551 37.052 10.6111 37.444 10.4351 37.892C10.2591 38.332 10.1711 38.804 10.1711 39.308C10.1711 39.82 10.2591 40.3 10.4351 40.748C10.6111 41.188 10.8551 41.576 11.1671 41.912C11.4871 42.248 11.8551 42.512 12.2711 42.704C12.6871 42.888 13.1311 42.98 13.6031 42.98C14.0111 42.98 14.3951 42.912 14.7551 42.776C15.1231 42.632 15.4751 42.436 15.8111 42.188C15.9551 42.084 16.0951 42.04 16.2311 42.056C16.3751 42.064 16.4951 42.12 16.5911 42.224C16.6871 42.32 16.7351 42.456 16.7351 42.632C16.7351 42.712 16.7191 42.792 16.6871 42.872C16.6551 42.944 16.6071 43.012 16.5431 43.076C16.1111 43.42 15.6471 43.68 15.1511 43.856C14.6631 44.032 14.1471 44.12 13.6031 44.12ZM21.5033 44C21.3273 44 21.1793 43.94 21.0592 43.82C20.9393 43.7 20.8793 43.552 20.8793 43.376V34.628H22.1273V43.376C22.1273 43.552 22.0673 43.7 21.9473 43.82C21.8273 43.94 21.6793 44 21.5033 44ZM18.2873 35.78C18.1193 35.78 17.9793 35.728 17.8673 35.624C17.7633 35.512 17.7113 35.372 17.7113 35.204C17.7113 35.036 17.7633 34.9 17.8673 34.796C17.9793 34.684 18.1193 34.628 18.2873 34.628H24.7073C24.8753 34.628 25.0113 34.684 25.1153 34.796C25.2273 34.9 25.2833 35.036 25.2833 35.204C25.2833 35.372 25.2273 35.512 25.1153 35.624C25.0113 35.728 24.8753 35.78 24.7073 35.78H18.2873ZM27.2888 44C27.1128 44 26.9648 43.94 26.8448 43.82C26.7248 43.7 26.6648 43.552 26.6648 43.376V35.252C26.6648 35.068 26.7248 34.92 26.8448 34.808C26.9648 34.688 27.1128 34.628 27.2888 34.628H29.6888C30.2888 34.628 30.8208 34.76 31.2848 35.024C31.7488 35.288 32.1088 35.656 32.3648 36.128C32.6288 36.592 32.7608 37.128 32.7608 37.736C32.7608 38.32 32.6288 38.84 32.3648 39.296C32.1088 39.752 31.7488 40.108 31.2848 40.364C30.8208 40.62 30.2888 40.748 29.6888 40.748H27.9128V43.376C27.9128 43.552 27.8528 43.7 27.7328 43.82C27.6208 43.94 27.4728 44 27.2888 44ZM27.9128 39.596H29.6888C30.0568 39.596 30.3808 39.516 30.6608 39.356C30.9408 39.196 31.1608 38.976 31.3208 38.696C31.4808 38.416 31.5608 38.096 31.5608 37.736C31.5608 37.352 31.4808 37.016 31.3208 36.728C31.1608 36.432 30.9408 36.2 30.6608 36.032C30.3808 35.864 30.0568 35.78 29.6888 35.78H27.9128V39.596ZM33.4061 44C33.1821 44 33.0101 43.904 32.8901 43.712C32.7701 43.52 32.7581 43.316 32.8541 43.1L36.2261 35.048C36.3461 34.768 36.5421 34.628 36.8141 34.628C37.1021 34.628 37.2981 34.768 37.4021 35.048L40.7861 43.124C40.8741 43.348 40.8581 43.552 40.7381 43.736C40.6261 43.912 40.4541 44 40.2221 44C40.1021 44 39.9861 43.968 39.8741 43.904C39.7701 43.832 39.6941 43.736 39.6461 43.616L36.6701 36.224H37.0061L33.9821 43.616C33.9261 43.744 33.8421 43.84 33.7301 43.904C33.6261 43.968 33.5181 44 33.4061 44ZM34.0421 41.936L34.5221 40.904H39.2261L39.7061 41.936H34.0421ZM42.1796 44C41.9956 44 41.8556 43.944 41.7596 43.832C41.6636 43.712 41.6156 43.576 41.6156 43.424C41.6156 43.264 41.6636 43.12 41.7596 42.992L44.7836 38.96L45.3236 38.48L48.0836 34.808C48.1956 34.688 48.3436 34.628 48.5276 34.628C48.6956 34.628 48.8276 34.68 48.9236 34.784C49.0196 34.888 49.0716 35.016 49.0796 35.168C49.0876 35.32 49.0436 35.468 48.9476 35.612L46.0316 39.5L45.5156 39.956L42.6116 43.82C42.4916 43.94 42.3476 44 42.1796 44ZM48.4556 44C48.3516 44 48.2596 43.984 48.1796 43.952C48.1076 43.912 48.0396 43.852 47.9756 43.772L45.1796 39.896L44.7356 39.524L41.9156 35.612C41.8196 35.484 41.7796 35.344 41.7956 35.192C41.8116 35.04 41.8676 34.908 41.9636 34.796C42.0676 34.684 42.2036 34.628 42.3716 34.628C42.5796 34.628 42.7276 34.688 42.8156 34.808L45.4796 38.504L45.9356 38.876L48.8996 42.992C48.9956 43.12 49.0396 43.264 49.0316 43.424C49.0236 43.584 48.9676 43.72 48.8636 43.832C48.7676 43.944 48.6316 44 48.4556 44ZM50.4335 44C50.2095 44 50.0375 43.904 49.9175 43.712C49.7975 43.52 49.7855 43.316 49.8815 43.1L53.2535 35.048C53.3735 34.768 53.5695 34.628 53.8415 34.628C54.1295 34.628 54.3255 34.768 54.4295 35.048L57.8135 43.124C57.9015 43.348 57.8855 43.552 57.7655 43.736C57.6535 43.912 57.4815 44 57.2495 44C57.1295 44 57.0135 43.968 56.9015 43.904C56.7975 43.832 56.7215 43.736 56.6735 43.616L53.6975 36.224H54.0335L51.0095 43.616C50.9535 43.744 50.8695 43.84 50.7575 43.904C50.6535 43.968 50.5455 44 50.4335 44ZM51.0695 41.936L51.5495 40.904H56.2535L56.7335 41.936H51.0695ZM59.867 44C59.691 44 59.543 43.94 59.423 43.82C59.303 43.7 59.243 43.552 59.243 43.376V35.252C59.243 35.068 59.303 34.92 59.423 34.808C59.543 34.688 59.691 34.628 59.867 34.628C60.051 34.628 60.199 34.688 60.311 34.808C60.431 34.92 60.491 35.068 60.491 35.252V38.696H66.059V35.252C66.059 35.068 66.119 34.92 66.239 34.808C66.359 34.688 66.507 34.628 66.683 34.628C66.867 34.628 67.015 34.688 67.127 34.808C67.239 34.92 67.295 35.068 67.295 35.252V43.376C67.295 43.552 67.239 43.7 67.127 43.82C67.015 43.94 66.867 44 66.683 44C66.507 44 66.359 43.94 66.239 43.82C66.119 43.7 66.059 43.552 66.059 43.376V39.8H60.491V43.376C60.491 43.552 60.431 43.7 60.311 43.82C60.199 43.94 60.051 44 59.867 44ZM70.3201 44C70.1441 44 69.9961 43.94 69.8761 43.82C69.7561 43.7 69.6961 43.552 69.6961 43.376V35.192C69.6961 35.024 69.7561 34.888 69.8761 34.784C69.9961 34.68 70.1441 34.628 70.3201 34.628C70.5041 34.628 70.6521 34.68 70.7641 34.784C70.8841 34.888 70.9441 35.024 70.9441 35.192V38.24H73.4401C74.0401 38.24 74.5721 38.36 75.0361 38.6C75.5001 38.84 75.8601 39.172 76.1161 39.596C76.3801 40.012 76.5121 40.496 76.5121 41.048C76.5121 41.624 76.3801 42.136 76.1161 42.584C75.8601 43.024 75.5001 43.372 75.0361 43.628C74.5721 43.876 74.0401 44 73.4401 44H70.3201ZM70.9441 42.848H73.4401C73.8081 42.848 74.1321 42.78 74.4121 42.644C74.6921 42.508 74.9121 42.308 75.0721 42.044C75.2321 41.772 75.3121 41.44 75.3121 41.048C75.3121 40.648 75.2321 40.324 75.0721 40.076C74.9121 39.82 74.6921 39.632 74.4121 39.512C74.1321 39.384 73.8081 39.32 73.4401 39.32H70.9441V42.848ZM78.0362 41.324C77.8602 41.324 77.7122 41.268 77.5922 41.156C77.4802 41.044 77.4242 40.9 77.4242 40.724C77.4242 40.54 77.4802 40.392 77.5922 40.28C77.7122 40.168 77.8602 40.112 78.0362 40.112H80.7122C80.8882 40.112 81.0322 40.168 81.1442 40.28C81.2562 40.392 81.3122 40.54 81.3122 40.724C81.3122 40.9 81.2562 41.044 81.1442 41.156C81.0322 41.268 80.8882 41.324 80.7122 41.324H78.0362ZM85.4237 44C84.8237 44 84.2917 43.876 83.8277 43.628C83.3637 43.372 82.9997 43.028 82.7357 42.596C82.4717 42.156 82.3397 41.664 82.3397 41.12C82.3397 40.936 82.3917 40.788 82.4957 40.676C82.6077 40.556 82.7397 40.496 82.8917 40.496C83.0517 40.496 83.1837 40.556 83.2877 40.676C83.3917 40.788 83.4437 40.936 83.4437 41.12C83.4437 41.448 83.5277 41.752 83.6957 42.032C83.8637 42.304 84.0917 42.524 84.3797 42.692C84.6677 42.852 84.9917 42.932 85.3517 42.932C85.8797 42.932 86.3037 42.788 86.6237 42.5C86.9517 42.204 87.1157 41.792 87.1157 41.264C87.1157 40.928 87.0437 40.628 86.8997 40.364C86.7557 40.092 86.5597 39.876 86.3117 39.716C86.0637 39.556 85.7837 39.476 85.4717 39.476C85.2957 39.476 85.1477 39.416 85.0277 39.296C84.9157 39.176 84.8597 39.028 84.8597 38.852C84.8597 38.676 84.9157 38.532 85.0277 38.42C85.1477 38.3 85.2957 38.24 85.4717 38.24C85.6957 38.24 85.9117 38.184 86.1197 38.072C86.3277 37.952 86.4997 37.796 86.6357 37.604C86.7717 37.404 86.8397 37.18 86.8397 36.932C86.8397 36.58 86.7117 36.284 86.4557 36.044C86.1997 35.804 85.8717 35.684 85.4717 35.684C85.1677 35.684 84.8877 35.744 84.6317 35.864C84.3837 35.984 84.1837 36.144 84.0317 36.344C83.8877 36.544 83.8157 36.768 83.8157 37.016C83.8157 37.2 83.7637 37.356 83.6597 37.484C83.5557 37.604 83.4237 37.664 83.2637 37.664C83.1117 37.664 82.9797 37.608 82.8677 37.496C82.7637 37.376 82.7117 37.228 82.7117 37.052C82.7117 36.588 82.8317 36.172 83.0717 35.804C83.3117 35.436 83.6397 35.148 84.0557 34.94C84.4717 34.724 84.9357 34.616 85.4477 34.616C85.9197 34.616 86.3437 34.72 86.7197 34.928C87.1037 35.128 87.4037 35.404 87.6197 35.756C87.8437 36.1 87.9557 36.492 87.9557 36.932C87.9557 37.244 87.8837 37.52 87.7397 37.76C87.6037 38 87.4277 38.208 87.2117 38.384C86.9957 38.552 86.7677 38.692 86.5277 38.804C86.9517 38.948 87.2957 39.144 87.5597 39.392C87.8237 39.632 88.0157 39.912 88.1357 40.232C88.2637 40.552 88.3277 40.9 88.3277 41.276C88.3277 41.796 88.1957 42.264 87.9317 42.68C87.6677 43.088 87.3157 43.412 86.8757 43.652C86.4357 43.884 85.9517 44 85.4237 44Z" fill="white"/>
<g clip-path="url(#clip0_16_20)">
<path d="M34.413 16.1739H31.0435V18.8696H34.413V16.1739Z" fill="#1DAEFF"/>
<path d="M34.413 21.5652H31.0435V24.2609H34.413V21.5652Z" fill="#1DAEFF"/>
<path fill-rule="evenodd" clip-rule="evenodd" d="M36.4348 11.4565V0H58V31H49.913V21.5652H44.5217V31H36.4348V28.9783V13.4783V11.4565ZM39.8043 24.2609H42.5V21.5652H39.8043V24.2609ZM39.8043 18.8696H42.5V16.1739H39.8043V18.8696ZM39.8043 13.4783H42.5V10.7826H39.8043V13.4783ZM39.8043 8.08694H42.5V5.39134H39.8043V8.08694ZM45.8696 18.8696H48.5652V16.1739H45.8696V18.8696ZM45.8696 13.4783H48.5652V10.7826H45.8696V13.4783ZM45.8696 8.08694H48.5652V5.39134H45.8696V8.08694ZM51.9348 24.2609H54.6304V21.5652H51.9348V24.2609ZM51.9348 18.8696H54.6304V16.1739H51.9348V18.8696ZM51.9348 13.4783H54.6304V10.7826H51.9348V13.4783ZM51.9348 8.08694H54.6304V5.39134H51.9348V8.08694Z" fill="white"/>
<path d="M36.4348 11.4565H27V31H36.4348V28.9783H29.0217V13.4783H36.4348V11.4565Z" fill="#1DAEFF"/>
</g>
<defs>
<clipPath id="clip0_16_20">
<rect width="31" height="31" fill="white" transform="translate(27)"/>
</clipPath>
</defs>
</svg>
